<svg xmlns="http://www.w3.org/2000/svg" viewBox="0 0 138.46 129.88"><defs><style>.cls-1{fill:#fff;}.cls-2{fill:#482783;}</style></defs><g id="Layer_2" data-name="Layer 2"><g id="Layer_1-2" data-name="Layer 1"><polygon class="cls-1" points="84.18 93.48 84.17 93.48 83.76 93.89 89.73 93.89 90.14 93.48 90.24 93.39 90.55 93.08 94.3 89.38 88.32 89.38 88.32 89.38 84.58 93.08 84.18 93.48"/><polygon class="cls-1" points="73.69 16.32 74.28 16.32 77.74 16.32 77.74 1.26 73.69 5.33 73.69 16.32"/><polygon class="cls-1" points="73.15 4.74 77.13 0.73 38.41 0.73 42.19 4.74 73.15 4.74"/><path class="cls-1" d="M125.15,36.56l.14,0a9.7,9.7,0,0,1,1,.3l.11,0,.34.13.13.06.16.08.15.07,4.26-4.08h0l-.32-.18-.11-.06-.3-.15-.17-.07-.36-.15-.18-.07c-.19-.07-.4-.14-.62-.2-1.41-.39-2.58,0-4.08-.62a9.56,9.56,0,0,0-1.52-.46v5.1l.65.1Z"/><polygon class="cls-1" points="119.31 44.99 123.02 48.7 123.02 17.78 119.31 21.49 118.91 21.9 118.5 22.3 118.5 44.19 102.07 44.19 102.07 36.73 83.19 36.73 83.19 93.17 83.59 92.77 84 92.37 87.68 88.73 87.7 88.75 87.7 41.93 84 37.54 101.26 37.54 101.26 44.99 119.31 44.99"/><polygon class="cls-1" points="42.98 16.32 72.89 16.32 72.89 5.54 42.98 5.54 42.98 5.57 42.98 16.32"/><polygon class="cls-1" points="123.34 16.8 123.34 16.8 123.34 16.81 123.34 16.8"/><path class="cls-1" d="M134.66,59.86c-.35-1.66-.71-1.07-1.54-3.2a15.38,15.38,0,0,1-.94-4.13L131.83,34h0l-4.09,3.92h0l.33,15.31a13.43,13.43,0,0,0,.84,3.66,5.71,5.71,0,0,0,.79,1.5,3.33,3.33,0,0,1,.64,1.5,19,19,0,0,0,2.12,4.9c.86,1.4.37,3.21,0,4.4a7.12,7.12,0,0,1-.64,1.49A6.13,6.13,0,0,0,131,73.1a12.75,12.75,0,0,0,.11,2.09c.12,1.24.23,2.31-.19,2.89a4.89,4.89,0,0,0-1.12,2.62c0,.19,0,.34-.06.49s0,.1,0,.14a1.82,1.82,0,0,1-.07.25l-.06.14-.09.16a.5.5,0,0,1-.08.12l-.09.1a1.3,1.3,0,0,1-.53.32l0,0a1.83,1.83,0,0,1-.25.06h0L133.6,84a.47.47,0,0,0,.14-.08l.06,0,.06-.08a.21.21,0,0,1,0-.06s0-.08,0-.12l0-.11s0-.11,0-.18,0-.09,0-.14,0-.13,0-.19,0-.33,0-.54a5.71,5.71,0,0,1,1.3-3.08c.59-.82-.12-3.43,0-5.2s1.3-3.07,1.66-4.37.82-3.11,0-4.46A21.46,21.46,0,0,1,134.66,59.86Z"/><path class="cls-1" d="M129,80.64a5.54,5.54,0,0,1,1.27-3,5.27,5.27,0,0,0,0-2.34,15.56,15.56,0,0,1-.11-2.22,6.89,6.89,0,0,1,.95-2.77,7.08,7.08,0,0,0,.58-1.33c.29-1.06.73-2.66.05-3.77A20.05,20.05,0,0,1,129.55,60a2.43,2.43,0,0,0-.5-1.19,6.24,6.24,0,0,1-.89-1.68,14.45,14.45,0,0,1-.9-3.92L126.94,38a8,8,0,0,0-2.6-.82l-.52-.07V49.51H96.75V42.05H88.51V88.57h7.25v26.08H78.09s0,0,0,.06a5.82,5.82,0,0,0,1.9,2.51c.38.23.86.56,1.36.91a20.16,20.16,0,0,0,2.93,1.78,7.86,7.86,0,0,1,2.84,1.93,2,2,0,0,0,2.49.68,3.39,3.39,0,0,1,1.35-.29,4.15,4.15,0,0,1,1.77.46l.13,0a8.06,8.06,0,0,1,.81.43,5.8,5.8,0,0,0,2,.84A6.94,6.94,0,0,0,99,124a4.71,4.71,0,0,0,1.64-.94,21,21,0,0,0-1.6-4.86,4.16,4.16,0,0,1-.64-2.26,3.88,3.88,0,0,0-.26-1.38c-.61-1.33-.46-5.38.09-6.92a40.11,40.11,0,0,1,2.75-5.83,11.7,11.7,0,0,1,3.78-3.64,7.75,7.75,0,0,0,1-1.14c.89-1.19,1.52-2,2.11-2.13a4.09,4.09,0,0,0,1.24-.68,13.66,13.66,0,0,1,2-1.14,15.57,15.57,0,0,0,3.9-3c1-1,3.38-3.26,4.52-3.26.42,0,1.45-.9,2.14-1.5a8.51,8.51,0,0,1,1.71-1.29c.32-.14.87-.47,1.44-.81l.59-.34,0,0,.09,0,.2-.11.24-.14.12-.07.45-.23,0,0,.47-.23h0l.42-.16.09,0a1.9,1.9,0,0,1,.37-.08C128.71,81.69,128.91,81.67,129,80.64Z"/><polygon class="cls-1" points="42.17 53.33 37.78 49.45 0.97 49.45 8.18 53.46 8.14 53.33 42.17 53.33"/><path class="cls-1" d="M57.7,83.4a5.14,5.14,0,0,0,1.23,1.29,24.74,24.74,0,0,1,3.34,3.41v-46H54.1v7.39H43v4.7H9.27a11.43,11.43,0,0,0,2,3.46,23.75,23.75,0,0,1,2.37,3.71l.09.17A22.22,22.22,0,0,0,16.24,64a26,26,0,0,1,3.32,3.45,6.82,6.82,0,0,0,2.32,2.69c1,.56,1.73,2.37,2.36,4.24a4.91,4.91,0,0,0,.59,1.11A3.42,3.42,0,0,1,25.56,78c-.16,1.2,1.67,3.14,2.77,4.29l.56.6a14.54,14.54,0,0,0,4.24,3.26l.69.29a12.07,12.07,0,0,1,3.45,1.86,3.48,3.48,0,0,0,2.38,1.29,6.13,6.13,0,0,0,3.26-2.68c.16-.38.31-.86.47-1.36a6.5,6.5,0,0,1,1.5-3c.21-.16.42-.34.63-.51a3.84,3.84,0,0,1,2.22-1.2,9.61,9.61,0,0,0,1.14-.14,21.82,21.82,0,0,1,2.86-.28,3.11,3.11,0,0,1,1.77.39,1.91,1.91,0,0,0,1,.34,2.9,2.9,0,0,1,1.94.88A8.66,8.66,0,0,1,57.7,83.4Z"/><polygon class="cls-1" points="94.95 113.84 94.95 90.02 91.25 93.68 90.85 94.08 90.44 94.47 90.44 109.33 74.28 109.33 60.35 109.33 60.35 93.94 67.59 93.94 67.59 36.73 48.78 36.73 48.78 44.19 33.19 44.19 33.19 21.64 74.28 21.64 117.88 21.64 118.28 21.24 118.68 20.83 122.37 17.13 74.28 17.13 28.68 17.13 28.59 17.13 28.68 17.22 32.38 20.84 32.38 44.99 49.59 44.99 49.59 37.54 66.79 37.54 66.79 93.14 63.08 89.43 55.83 89.43 59.54 93.14 59.54 110.14 74.28 110.14 91.25 110.14 94.95 113.84"/><path class="cls-2" d="M137.88,65a20.59,20.59,0,0,1-2.26-5.22,4,4,0,0,0-.76-1.77,5.61,5.61,0,0,1-.82-1.55,14.65,14.65,0,0,1-.89-3.88l-.35-19.08v-.38l-.3-.24a8,8,0,0,0-2.69-1.26,7.78,7.78,0,0,0-2-.25,5.76,5.76,0,0,1-2-.34,10.68,10.68,0,0,0-1.81-.54V16.4H78.72V0h-41V16.4H28V48.72H0l.31,1A29.2,29.2,0,0,0,4,57.62,39.41,39.41,0,0,1,6.25,61.7c.36.7.66,1.3.86,1.65a22.14,22.14,0,0,0,2.69,3,32.1,32.1,0,0,1,3.13,3.5,9.11,9.11,0,0,0,3.27,3.36c.79.44,2.11,2.58,2.56,3.92a6.18,6.18,0,0,0,.78,1.5,2.49,2.49,0,0,1,.6,1.92c-.22,1.65,1.66,3.62,3.95,5.83.44.43.82.79,1.06,1.06a17.14,17.14,0,0,0,5.12,3.86l.75.32a13.11,13.11,0,0,1,3.37,1.76,5.81,5.81,0,0,0,2.13,1.21,6.42,6.42,0,0,1,1,.44c.23.15.49.36.74.56a3.4,3.4,0,0,0,2,1,1.52,1.52,0,0,0,.93-.32l.07,0a12.38,12.38,0,0,0,1.25-.85c.34-.21.66-.4,1-.57A14.49,14.49,0,0,0,44.87,94a7,7,0,0,0,1.64-2.34,6.63,6.63,0,0,1,.73-1.2,8.64,8.64,0,0,0,1.22-2,6.25,6.25,0,0,1,1.29-2,2.08,2.08,0,0,1,1.1-.47,1.66,1.66,0,0,1,1.1.56c.82.74,1.13.88,1.58.93,0,0,.15,0,.64.38a10.56,10.56,0,0,1,1,.81v26h18.3l-.88.08a3.1,3.1,0,0,1,0,.61c-.22,1.84,1.41,3.3,2.39,4.17.2.18.46.42.55.52.41.92,2.63,2.67,3.68,3.3l1,.6a23.82,23.82,0,0,0,3.31,1.84c.44.19.81.32,1.13.43a3.49,3.49,0,0,1,1.57.85,4.52,4.52,0,0,0,3.12,1.3,3.92,3.92,0,0,0,1.52-.3.8.8,0,0,1,.34-.07,3.92,3.92,0,0,1,1.84.87,6.23,6.23,0,0,0,.94.56,4.79,4.79,0,0,0,1.89.25h.57a8.18,8.18,0,0,1,1.48.1,4.65,4.65,0,0,0,.66,0,10.54,10.54,0,0,0,3.19-.7c.32-.1.61-.2.84-.26,3.28-.87,4.38-2.37,4.49-2.54l.25-.37-.18-.41a27,27,0,0,1-1-2.65,13.22,13.22,0,0,1-.38-1.74,7.77,7.77,0,0,0-.6-2.26c-.79-1.73-2-5.41-1.55-6.61a18.52,18.52,0,0,0,.59-2.34,12.88,12.88,0,0,1,1.17-3.78,11.87,11.87,0,0,1,3.51-3.44c.44-.18.82-.66,1.58-1.66a9.85,9.85,0,0,1,1.67-1.87,3.17,3.17,0,0,0,1.44-.9,6.1,6.1,0,0,1,1.66-1.15,18.42,18.42,0,0,0,4.61-3.47c1.92-1.92,3.59-3.15,4-3.19.86,0,1.77-.74,3.15-1.94a10.32,10.32,0,0,1,1.55-1.21,18.55,18.55,0,0,0,1.7-.94A14.48,14.48,0,0,1,133.24,85c1.48-.16,1.67-.71,1.77-2l0-.36a5,5,0,0,1,1.15-2.67c.54-.74.41-2,.27-3.4a14.66,14.66,0,0,1-.12-2.22,6.56,6.56,0,0,1,.89-2.51,8.5,8.5,0,0,0,.74-1.7C138.32,68.8,138.9,66.65,137.88,65ZM124,31.31a9.47,9.47,0,0,1,1.51.46c1.51.61,2.67.22,4.08.62a6.48,6.48,0,0,1,.62.2l.19.07.36.14.16.08.31.15.1.06.32.18h0l-4.26,4.08-.15-.07-.16-.08-.13-.06-.33-.13-.12,0a9.06,9.06,0,0,0-1-.3l-.14,0c-.21,0-.43-.1-.67-.14l-.65-.09Zm-.48-14.43h0ZM84.16,37.61,87.86,42V88.81l-3.69,3.64-.4.4-.41.4V36.81h18.88v7.45h16.44V22.38l.4-.4.41-.41,3.7-3.71V48.78l-3.7-3.71H101.42V37.61Zm4.32,51.85h6l-3.75,3.7-.32.31-.09.09L89.9,94h-6l.41-.41h0l.4-.4,3.75-3.7ZM77.3.81l-4,4h-31l-3.78-4Zm.61.53V16.4h-4v-11ZM73.05,5.62V16.4H43.14V5.62ZM1.13,49.53H38l4.38,3.88H8.3l0,.12ZM54.7,81.2a1.87,1.87,0,0,1-1-.35,3.12,3.12,0,0,0-1.77-.38,19.94,19.94,0,0,0-2.85.28c-.51.07-.94.14-1.15.14a3.84,3.84,0,0,0-2.22,1.2c-.2.17-.41.35-.62.51-.71.53-1.12,1.8-1.51,3-.16.5-.31,1-.47,1.36a6.17,6.17,0,0,1-3.26,2.68,3.46,3.46,0,0,1-2.37-1.29A11.9,11.9,0,0,0,34,86.53l-.69-.29A14.4,14.4,0,0,1,29.05,83l-.55-.59c-1.1-1.15-2.94-3.09-2.78-4.29A3.33,3.33,0,0,0,25,75.55a4.78,4.78,0,0,1-.59-1.12c-.62-1.86-1.34-3.67-2.36-4.24a6.71,6.71,0,0,1-2.32-2.68,26,26,0,0,0-3.32-3.45,21,21,0,0,1-2.46-2.5l-.1-.18a22.28,22.28,0,0,0-2.37-3.7,11.64,11.64,0,0,1-2-3.46H43.14v-4.7H54.26V42.13h8.18V88.18a25.33,25.33,0,0,0-3.34-3.41,5.21,5.21,0,0,1-1.24-1.29,8.25,8.25,0,0,0-1.23-1.4A2.88,2.88,0,0,0,54.7,81.2Zm19.74,29H59.7v-17L56,89.51h7.25l3.7,3.7V37.61H49.75v7.46H32.55V20.92l-3.7-3.62-.1-.09h93.79l-3.69,3.7-.41.41-.4.4H33.36V44.26H48.94V36.81H67.76V94H60.51V109.4h30.1V94.55l.4-.4.4-.4,3.71-3.65v23.82l-3.71-3.71ZM128,81.87a1.82,1.82,0,0,0-.36.08l-.09,0c-.14,0-.27.1-.43.16h0l-.47.23,0,0-.45.24-.13.07-.24.14-.19.11-.09,0-.05,0-.58.34c-.58.34-1.12.66-1.45.81a8.51,8.51,0,0,0-1.71,1.29c-.68.6-1.72,1.5-2.14,1.5-1.13,0-3.54,2.28-4.52,3.26a15.57,15.57,0,0,1-3.9,3,13,13,0,0,0-1.94,1.14A4.33,4.33,0,0,1,108,95c-.6.15-1.23.94-2.12,2.13a8.48,8.48,0,0,1-.94,1.14,11.6,11.6,0,0,0-3.78,3.64,38.63,38.63,0,0,0-2.75,5.83c-.55,1.54-.7,5.59-.1,6.92a3.64,3.64,0,0,1,.26,1.38,4.25,4.25,0,0,0,.64,2.26,20.6,20.6,0,0,1,1.61,4.86,4.88,4.88,0,0,1-1.64.94,7.07,7.07,0,0,1-3.28,0,5.91,5.91,0,0,1-2-.84,8.16,8.16,0,0,0-.82-.43l-.12-.06a4.39,4.39,0,0,0-1.77-.45,3.48,3.48,0,0,0-1.35.28,2,2,0,0,1-2.49-.67A7.87,7.87,0,0,0,84.46,120a19.59,19.59,0,0,1-2.92-1.78c-.51-.35-1-.68-1.37-.91a5.71,5.71,0,0,1-1.89-2.51l0-.07H95.92V88.65H88.67V42.13h8.24v7.45H124V37.23l.52.07a8,8,0,0,1,2.59.82l.33,15.19a14.17,14.17,0,0,0,.89,3.93,6.55,6.55,0,0,0,.89,1.68,2.43,2.43,0,0,1,.5,1.18,20,20,0,0,0,2.22,5.16c.69,1.1.25,2.71,0,3.77a7.89,7.89,0,0,1-.59,1.33,6.88,6.88,0,0,0-.94,2.77,13.09,13.09,0,0,0,.11,2.22,5.23,5.23,0,0,1,0,2.34,5.62,5.62,0,0,0-1.27,3C129.08,81.75,128.87,81.77,128,81.87Zm9.19-12c-.35,1.3-1.54,2.6-1.66,4.37s.6,4.37,0,5.2a5.63,5.63,0,0,0-1.29,3.08c0,.21,0,.38-.05.54s0,.13,0,.18a.89.89,0,0,0,0,.15q0,.1,0,.18l0,.11a.56.56,0,0,1,0,.12l0,.06-.06.07s0,0-.05,0a.61.61,0,0,1-.14.07l-5.12-1.47h0l.26-.06,0,0a1.24,1.24,0,0,0,.53-.32.47.47,0,0,0,.1-.1l.08-.12a.8.8,0,0,0,.08-.16s0-.09.06-.15a1.37,1.37,0,0,0,.07-.24.74.74,0,0,0,0-.14c0-.15,0-.31.07-.49a4.82,4.82,0,0,1,1.12-2.62c.41-.58.31-1.65.18-2.89a14,14,0,0,1-.11-2.09,6.24,6.24,0,0,1,.86-2.45,8,8,0,0,0,.65-1.49c.33-1.19.82-3,0-4.4a19.3,19.3,0,0,1-2.12-4.9,3.18,3.18,0,0,0-.63-1.5,5.63,5.63,0,0,1-.8-1.5,14,14,0,0,1-.84-3.66L127.91,38h0L132,34.05h0l.34,18.56a15.18,15.18,0,0,0,.95,4.13c.83,2.13,1.18,1.54,1.54,3.2a21.1,21.1,0,0,0,2.36,5.47C138,66.75,137.54,68.57,137.19,69.87Z"/><path class="cls-2" d="M111.31,123.14a2,2,0,0,1-2.76,0,2,2,0,0,1,0-2.82,2,2,0,0,1,3.35,1.41A2,2,0,0,1,111.31,123.14Zm-2.46-2.59a1.7,1.7,0,0,0-.49,1.18,1.57,1.57,0,1,0,3.14,0,1.7,1.7,0,0,0-.49-1.18,1.55,1.55,0,0,0-2.16,0Zm1,.07a1,1,0,0,1,.68.22.71.71,0,0,1,.17.47.58.58,0,0,1-.47.6l.61.86h-.76l-.43-.72v.72h-.61v-2.15Zm-.2.95h.09a.43.43,0,0,0,.25,0,.23.23,0,0,0,.11-.21.21.21,0,0,0-.08-.18.59.59,0,0,0-.29,0h-.08Z"/></g></g></svg>